<svg width="13" height="12" viewBox="0 0 13 12" fill="none" xmlns="http://www.w3.org/2000/svg">
<path fill-rule="evenodd" clip-rule="evenodd" d="M6.92068 1.13691C7.04569 1.01193 7.21523 0.941711 7.39201 0.941711C7.56878 0.941711 7.73832 1.01193 7.86334 1.13691L12.53 5.80381C12.655 5.92883 12.7252 6.09838 12.7252 6.27517C12.7252 6.45195 12.655 6.6215 12.53 6.74652L7.86334 11.4134C7.73761 11.5349 7.56921 11.6021 7.39441 11.6005C7.21961 11.599 7.0524 11.5289 6.9288 11.4053C6.80519 11.2817 6.73508 11.1145 6.73356 10.9397C6.73204 10.7649 6.79924 10.5964 6.92068 10.4707L10.4493 6.94187H1.39201C1.2152 6.94187 1.04563 6.87162 0.920604 6.74659C0.79558 6.62156 0.725342 6.45199 0.725342 6.27517C0.725342 6.09835 0.79558 5.92877 0.920604 5.80374C1.04563 5.67871 1.2152 5.60847 1.39201 5.60847H10.4493L6.92068 2.07963C6.79569 1.9546 6.72548 1.78505 6.72548 1.60827C6.72548 1.43148 6.79569 1.26194 6.92068 1.13691Z" fill="#9F0023"/>
</svg>
