<svg width="20" height="20" viewBox="0 0 20 20" fill="none" xmlns="http://www.w3.org/2000/svg">
<path fill-rule="evenodd" clip-rule="evenodd" d="M17.4998 9.99942V13.2487C17.4923 14.0973 17.2281 14.9236 16.7419 15.6191C16.2556 16.3146 15.5702 16.8467 14.7758 17.1452C14.1 17.3974 13.382 17.5172 12.6609 17.498H7.0242C6.11496 17.5188 5.2208 17.2634 4.45981 16.7654C3.54034 16.1963 2.87917 15.2909 2.61687 14.242C2.5415 13.9215 2.5023 13.5936 2.5 13.2645V6.84898C2.5 5.7479 2.80791 4.75917 3.59228 3.96145C4.33327 3.1618 5.33969 2.65867 6.42412 2.54578C6.96066 2.4975 7.4972 2.49902 8.02695 2.50052C8.16291 2.50091 8.29842 2.50129 8.43337 2.50084H12.7396C13.7127 2.50084 14.6477 2.65813 15.4793 3.19744C16.4015 3.74813 17.0755 4.63367 17.3604 5.66925C17.4465 6.0224 17.491 6.38439 17.493 6.74786C17.5035 7.46993 17.5 8.192 17.4965 8.91407C17.4948 9.2751 17.493 9.63614 17.493 9.99717L17.4998 9.99942ZM14.6837 5.9589C14.6784 6.10404 14.6304 6.24441 14.5458 6.36248C14.4612 6.48055 14.3437 6.57109 14.208 6.62279C14.0722 6.67449 13.9243 6.68507 13.7825 6.65321C13.6408 6.62135 13.5116 6.54845 13.4111 6.44362C13.3105 6.33879 13.2431 6.20667 13.2172 6.06376C13.1913 5.92084 13.208 5.77347 13.2654 5.64003C13.3228 5.50659 13.4181 5.39299 13.5397 5.31343C13.6612 5.23386 13.8035 5.19185 13.9487 5.19264C14.1467 5.20021 14.334 5.28434 14.4711 5.42729C14.6082 5.57024 14.6844 5.76084 14.6837 5.9589ZM8.0883 12.5922C8.65337 12.9806 9.32069 13.1933 10.0063 13.2035C10.9336 13.2083 11.825 12.8462 12.4861 12.1961C13.1472 11.5461 13.5242 10.661 13.5349 9.73397C13.5362 9.04836 13.3346 8.37769 12.9556 7.80631C12.5766 7.23493 12.0371 6.78836 11.4049 6.52277C10.7727 6.25718 10.0761 6.18443 9.40267 6.31366C8.72923 6.4429 8.10906 6.76835 7.62014 7.24908C7.13123 7.72982 6.79541 8.34437 6.65492 9.01544C6.51444 9.68651 6.57556 10.3841 6.83061 11.0205C7.08565 11.657 7.52323 12.2038 8.0883 12.5922ZM7.99153 11.0751C7.73277 10.6738 7.59935 10.2046 7.60827 9.72723C7.61774 9.09662 7.87556 8.49518 8.32578 8.05345C8.77601 7.61172 9.3823 7.36533 10.0131 7.36777C10.4906 7.36785 10.9573 7.51008 11.3537 7.77632C11.7501 8.04256 12.0582 8.42076 12.2388 8.86273C12.4194 9.3047 12.4644 9.79043 12.3679 10.258C12.2714 10.7256 12.0378 11.1539 11.697 11.4883C11.3562 11.8227 10.9235 12.0481 10.4541 12.1357C9.98467 12.2234 9.49979 12.1693 9.06123 11.9804C8.62267 11.7915 8.25029 11.4763 7.99153 11.0751Z" fill="#373334"/>
</svg>
