<svg width="20" height="20" viewBox="0 0 20 20" fill="none" xmlns="http://www.w3.org/2000/svg">
<path fill-rule="evenodd" clip-rule="evenodd" d="M18 10C18 11.8499 17.3721 13.5532 16.3178 14.9083L13.049 14.0298L12.9088 13.9767L13.1826 13.8186C13.574 13.517 13.9302 13.1724 14.2445 12.7911C14.5601 12.3907 14.8058 11.9398 14.9714 11.4574C15.0238 11.3701 15.0583 11.2732 15.0729 11.1723C15.0876 11.0715 15.0821 10.9687 15.0568 10.87C15.0315 10.7712 14.9868 10.6785 14.9255 10.5971C14.8641 10.5157 14.7872 10.4472 14.6992 10.3958C14.5752 10.3002 14.426 10.2431 14.27 10.2313C14.114 10.2196 13.9581 10.2538 13.8214 10.3297C13.6004 10.4633 13.426 10.6618 13.3221 10.8983C13.2032 11.1581 13.0618 11.4069 12.8996 11.642C12.4051 12.3051 11.7415 12.8229 10.9782 13.1413C10.4736 13.3699 9.93038 13.5016 9.3769 13.5295C9.24939 13.53 9.12477 13.5197 9.00016 13.5094C8.87554 13.4991 8.75093 13.4888 8.62342 13.4892C8.42888 13.4715 8.23466 13.5255 8.07726 13.6411C7.91987 13.7566 7.81015 13.9258 7.76872 14.1168C7.73259 14.2525 7.72966 14.3951 7.76017 14.5323C7.79069 14.6696 7.85376 14.7975 7.94405 14.9053C8.07261 15.0348 8.24048 15.1179 8.42127 15.1416C9.39775 15.3205 10.4051 15.1979 11.3096 14.7903L11.7693 14.659L11.749 14.7926L11.3519 16.4234L10.9455 17.9447C10.6354 17.9812 10.3199 18 10 18C5.58172 18 2 14.4183 2 10C2 5.58172 5.58172 2 10 2C14.4183 2 18 5.58172 18 10ZM13.6237 15.9528L14.9392 16.2936C14.2987 16.797 13.5794 17.2047 12.8028 17.4953L12.8168 17.4425L12.8628 17.2696L13.2208 15.9294C13.2439 15.843 13.2804 15.8219 13.3577 15.8504L13.6237 15.9528ZM9.47988 5.54629C8.79758 5.50213 8.11781 5.66195 7.52698 6.00545C6.74095 6.45925 6.16667 7.20607 5.92953 8.08284C5.6924 8.95961 5.81167 9.8951 6.26131 10.685C6.59808 11.2809 7.10415 11.7633 7.71518 12.071C8.32622 12.3786 9.01464 12.4977 9.69295 12.413C10.3713 12.3282 11.0088 12.0436 11.5246 11.5952C12.0404 11.1468 12.4112 10.5548 12.5897 9.89464C12.7683 9.23443 12.7466 8.53576 12.5275 7.88741C12.3083 7.23907 11.9015 6.67032 11.3589 6.25346C10.8162 5.8366 10.1622 5.59045 9.47988 5.54629ZM8.47816 10.5169C8.17747 10.3635 7.92879 10.1244 7.7635 9.82994C7.65315 9.63332 7.58271 9.41684 7.55625 9.19298C7.52979 8.96912 7.54783 8.74229 7.60933 8.52554C7.67082 8.30879 7.77456 8.10641 7.91457 7.93005C8.05458 7.75368 8.2281 7.60681 8.42515 7.49789C8.72028 7.33474 9.05719 7.26277 9.39339 7.29105C9.72959 7.31933 10.05 7.4466 10.3143 7.6568C10.5785 7.86701 10.7747 8.15073 10.8782 8.47219C10.9816 8.79365 10.9877 9.13845 10.8956 9.4631C10.8035 9.78775 10.6173 10.0777 10.3606 10.2964C10.1039 10.5151 9.78813 10.6528 9.45312 10.692C9.11811 10.7313 8.77886 10.6703 8.47816 10.5169Z" fill="#373334"/>
</svg>
