<svg width="20" height="20" viewBox="0 0 20 20" fill="none" xmlns="http://www.w3.org/2000/svg">
<path d="M11.593 7.45892C11.593 7.89749 11.5748 8.31085 11.5722 8.71918C11.5665 8.9419 11.5937 9.16426 11.6528 9.37955C11.6887 9.51698 11.7689 9.63973 11.8818 9.72991C11.9097 9.75115 11.9424 9.76565 11.9772 9.77223C12.0121 9.7788 12.048 9.77726 12.0821 9.76771C12.2037 9.73011 12.3148 9.66634 12.4073 9.5812C12.6298 9.38256 12.8303 9.1621 13.0057 8.92334C13.6279 8.08894 14.1409 7.18305 14.533 6.22638C14.6033 6.06507 14.6709 5.90628 14.7359 5.74244C14.7825 5.61723 14.8751 5.51309 14.9961 5.45006C15.0719 5.42305 15.1522 5.41022 15.2329 5.41226C15.2693 5.41226 15.3083 5.41226 15.3474 5.41226H17.9492C18.1261 5.41226 18.303 5.41226 18.4695 5.41226C18.559 5.42342 18.6466 5.44632 18.7297 5.48031C18.7972 5.49938 18.8561 5.53977 18.8971 5.59504C18.9381 5.6503 18.9589 5.71728 18.9561 5.78529C18.9561 5.95834 18.9207 6.12966 18.852 6.2894C18.6775 6.69858 18.4577 7.08819 18.1963 7.45136C17.7098 8.17222 17.1556 8.8452 16.6353 9.53331C16.4609 9.76267 16.297 9.9996 16.1409 10.2391C16.0485 10.3716 16.0062 10.531 16.0212 10.6902C16.0434 10.8445 16.1164 10.9877 16.2294 11.0985C16.4193 11.2951 16.6118 11.4892 16.8148 11.6732C17.3585 12.1434 17.8687 12.6486 18.342 13.1855C18.5627 13.4404 18.753 13.7186 18.9092 14.0148C18.9476 14.0947 18.9739 14.1796 18.9873 14.2668C19.0108 14.3633 19.0015 14.4645 18.9607 14.5554C18.9199 14.6463 18.8498 14.7219 18.7609 14.7709C18.587 14.8774 18.3864 14.9358 18.1807 14.9398C17.4132 14.96 16.6457 14.9549 15.8807 14.9978C15.3888 15.021 14.9063 14.8604 14.533 14.5491C14.2511 14.3246 13.9899 14.0767 13.7525 13.8081C13.4923 13.5334 13.2503 13.2561 12.9719 12.994C12.8536 12.8815 12.7196 12.7856 12.5739 12.7092C12.4804 12.6537 12.3695 12.6324 12.2613 12.649C12.153 12.6657 12.0544 12.7192 11.9832 12.7999C11.8544 12.9503 11.7643 13.1283 11.7205 13.3191C11.637 13.61 11.5907 13.9096 11.5826 14.2114C11.5786 14.2865 11.5708 14.3614 11.5591 14.4357C11.5445 14.5311 11.5026 14.6205 11.4383 14.694C11.3739 14.7675 11.2896 14.8221 11.1949 14.8516C11.0688 14.9027 10.9335 14.9293 10.7968 14.9297C10.4534 14.9297 10.1099 14.9297 9.7561 14.9297C9.14989 14.923 8.54982 14.8111 7.98427 14.5996C6.96302 14.2269 6.04926 13.6217 5.32003 12.8352C4.59638 12.0639 3.95158 11.2266 3.39469 10.3348C2.51263 8.94947 1.73024 7.50683 1.05307 6.01718C1.00887 5.91892 0.991836 5.81121 1.00364 5.70464C1.00613 5.66479 1.01981 5.62636 1.0432 5.59349C1.06658 5.56062 1.09878 5.53456 1.13633 5.51812C1.26462 5.45536 1.40629 5.42256 1.55001 5.42234H4.13621C4.28957 5.4324 4.43661 5.4854 4.55947 5.57489C4.68233 5.66438 4.77572 5.78651 4.82829 5.92644C5.05167 6.49855 5.32046 7.05305 5.63224 7.58494C5.96979 8.17707 6.34972 8.74558 6.76923 9.28629C6.91154 9.4863 7.08743 9.66181 7.28959 9.80552C7.35398 9.85766 7.43305 9.88986 7.51655 9.89795C7.60006 9.90604 7.68414 9.88965 7.75791 9.85089C7.83858 9.80413 7.90154 9.73342 7.93744 9.64925C8.03194 9.43894 8.08996 9.21497 8.10916 8.98635C8.16595 8.45382 8.17727 7.91764 8.14298 7.3833C8.13665 7.06437 8.1027 6.74651 8.04151 6.43307C8.0259 6.35493 7.99728 6.27931 7.98167 6.20118C7.9629 6.12851 7.92805 6.06067 7.87953 6.00235C7.83101 5.94403 7.76998 5.89663 7.70068 5.86343C7.52209 5.75589 7.31964 5.69108 7.11007 5.67439C7.05022 5.67439 7.02941 5.64414 7.05543 5.59373C7.07771 5.54355 7.10752 5.49684 7.14389 5.4551C7.33417 5.25463 7.59109 5.12528 7.86979 5.08963C8.27357 5.0225 8.68305 4.99296 9.09264 5.00141C9.54795 5.00141 10.0059 5.00141 10.4638 5.02914C10.6625 5.04134 10.8595 5.07258 11.0518 5.1224C11.205 5.15189 11.3433 5.23069 11.4444 5.34601C11.5455 5.46132 11.6034 5.60637 11.6086 5.75757C11.6307 6.00059 11.6385 6.24463 11.632 6.48852C11.6268 6.81871 11.606 7.15141 11.593 7.45892Z" fill="#373334"/>
</svg>
