<svg width="20" height="20" viewBox="0 0 20 20" fill="none" xmlns="http://www.w3.org/2000/svg">
<path d="M17.3506 6.92813C17.3506 6.92813 17.2041 5.825 16.7529 5.34063C16.1816 4.70313 15.543 4.7 15.25 4.6625C13.1523 4.5 10.0029 4.5 10.0029 4.5H9.99707C9.99707 4.5 6.84766 4.5 4.75 4.6625C4.45703 4.7 3.81836 4.70313 3.24707 5.34063C2.7959 5.825 2.65234 6.92813 2.65234 6.92813C2.65234 6.92813 2.5 8.225 2.5 9.51875V10.7312C2.5 12.025 2.64941 13.3219 2.64941 13.3219C2.64941 13.3219 2.7959 14.425 3.24414 14.9094C3.81543 15.5469 4.56543 15.525 4.89941 15.5938C6.10059 15.7156 10 15.7531 10 15.7531C10 15.7531 13.1523 15.7469 15.25 15.5875C15.543 15.55 16.1816 15.5469 16.7529 14.9094C17.2041 14.425 17.3506 13.3219 17.3506 13.3219C17.3506 13.3219 17.5 12.0281 17.5 10.7312V9.51875C17.5 8.225 17.3506 6.92813 17.3506 6.92813ZM8.4502 12.2031V7.70625L12.502 9.9625L8.4502 12.2031Z" fill="#373334"/>
</svg>
